<svg xmlns="http://www.w3.org/2000/svg" viewBox="0 0 80 80" width="80" height="80">
  <defs>
    <linearGradient id="bg" x1="0" y1="0" x2="1" y2="1">
      <stop offset="0%" stop-color="#25D366"/>
      <stop offset="100%" stop-color="#0E8A3C"/>
    </linearGradient>
    <linearGradient id="sheen" x1="0" y1="0" x2="0" y2="1">
      <stop offset="0%" stop-color="#ffffff" stop-opacity=".35"/>
      <stop offset="55%" stop-color="#ffffff" stop-opacity="0"/>
    </linearGradient>
    <radialGradient id="glow" cx="50%" cy="35%" r="60%">
      <stop offset="0%" stop-color="#B8FFD0" stop-opacity=".55"/>
      <stop offset="100%" stop-color="#B8FFD0" stop-opacity="0"/>
    </radialGradient>
  </defs>
  <circle cx="40" cy="40" r="40" fill="url(#bg)"/>
  <circle cx="40" cy="40" r="40" fill="url(#glow)"/>
  <circle cx="40" cy="40" r="40" fill="url(#sheen)"/>
  <!-- stylized L + spark (AI/Linka mark) -->
  <g fill="#04160A">
    <path d="M28 22c-1.1 0-2 .9-2 2v26c0 2.2 1.8 4 4 4h18c1.1 0 2-.9 2-2s-.9-2-2-2H32c-1.1 0-2-.9-2-2V24c0-1.1-.9-2-2-2z"/>
    <path d="M53 20l1.8 4.2L59 26l-4.2 1.8L53 32l-1.8-4.2L47 26l4.2-1.8L53 20zM46 40l1.2 2.8L50 44l-2.8 1.2L46 48l-1.2-2.8L42 44l2.8-1.2L46 40z" opacity=".92"/>
  </g>
</svg>
